<?xml version="1.0" encoding="UTF-8" standalone="no"?>
<!-- Created with Inkscape (http://www.inkscape.org/) -->

<svg
   width="261.5954mm"
   height="224.27597mm"
   viewBox="0 0 261.5954 224.27597"
   version="1.1"
   id="svg1"
   xml:space="preserve"
   inkscape:export-filename="Home.svg"
   inkscape:export-xdpi="96"
   inkscape:export-ydpi="96"
   xmlns:inkscape="http://www.inkscape.org/namespaces/inkscape"
   xmlns:sodipodi="http://sodipodi.sourceforge.net/DTD/sodipodi-0.dtd"
   xmlns="http://www.w3.org/2000/svg"
   xmlns:svg="http://www.w3.org/2000/svg"><sodipodi:namedview
     id="namedview1"
     pagecolor="#ffffff"
     bordercolor="#000000"
     borderopacity="0.25"
     inkscape:showpageshadow="2"
     inkscape:pageopacity="0.0"
     inkscape:pagecheckerboard="0"
     inkscape:deskcolor="#d1d1d1"
     inkscape:document-units="mm" /><defs
     id="defs1" /><g
     inkscape:label="Livello 1"
     inkscape:groupmode="layer"
     id="layer1"
     transform="translate(466.73483,-139.34267)"><path
       style="fill:#000000"
       d="m -218.12546,362.79289 c -1.9936,-0.8285 -4.46586,-3.44348 -19.93862,-21.08965 -20.47753,-23.35394 -35.05094,-35.01834 -57.81184,-46.27196 -12.10382,-5.98446 -22.53095,-9.5113 -37.43956,-12.66342 -7.75646,-1.63995 -19.95556,-3.05645 -26.39922,-3.06535 l -4.36866,-0.006 v 19.92791 c 0,19.79433 -0.009,19.94066 -1.28173,21.82988 -2.79121,4.14187 -7.65995,5.62506 -11.88442,3.62042 -0.9794,-0.46475 -21.22719,-20.31396 -44.99509,-44.10936 -46.79563,-46.84975 -45.11959,-44.9488 -44.18571,-50.11527 0.35177,-1.94607 4.87881,-6.65958 44.18229,-46.00212 46.40571,-46.45181 46.07529,-46.15446 50.33864,-45.30179 2.80619,0.56124 5.50986,2.53266 6.71615,4.89719 1.04152,2.04155 1.10987,3.3919 1.10987,21.92741 v 19.75188 l 3.24126,0.006 c 5.19525,0.009 16.24025,1.10032 23.25254,2.29684 27.28887,4.65632 53.14622,16.57209 74.97182,34.54904 6.30633,5.1943 17.37341,16.33688 22.18523,22.33658 18.16128,22.64473 30.05478,50.64728 33.9051,79.82762 1.01002,7.6546 1.77464,27.67439 1.17837,30.85279 -0.52146,2.77962 -3.78116,6.37671 -6.45047,7.11813 -2.70469,0.75124 -3.90052,0.6914 -6.32595,-0.31656 z"
       id="path1" /></g></svg>
