<?xml version="1.0" encoding="UTF-8" standalone="no"?>
<!-- Created with Inkscape (http://www.inkscape.org/) -->

<svg
   width="222.44414mm"
   height="224.56908mm"
   viewBox="0 0 222.44414 224.56908"
   version="1.1"
   id="svg1"
   xml:space="preserve"
   inkscape:export-filename="Back.svg"
   inkscape:export-xdpi="96"
   inkscape:export-ydpi="96"
   xmlns:inkscape="http://www.inkscape.org/namespaces/inkscape"
   xmlns:sodipodi="http://sodipodi.sourceforge.net/DTD/sodipodi-0.dtd"
   xmlns="http://www.w3.org/2000/svg"
   xmlns:svg="http://www.w3.org/2000/svg"><sodipodi:namedview
     id="namedview1"
     pagecolor="#ffffff"
     bordercolor="#000000"
     borderopacity="0.25"
     inkscape:showpageshadow="2"
     inkscape:pageopacity="0.0"
     inkscape:pagecheckerboard="0"
     inkscape:deskcolor="#d1d1d1"
     inkscape:document-units="mm" /><defs
     id="defs1" /><g
     inkscape:label="Livello 1"
     inkscape:groupmode="layer"
     id="layer1"
     transform="translate(180.16183,-59.290583)"><path
       style="fill:#000000;stroke-width:0.754713"
       d="m -139.15173,283.09528 c -8.35345,-2.02494 -15.44362,-9.06525 -17.64639,-17.52228 -0.64393,-2.4722 -0.74557,-9.11328 -0.74557,-48.71936 v -45.85699 l -5.23429,-0.19127 c -6.1818,-0.22588 -9.44267,-1.44681 -12.78144,-4.78557 -3.10711,-3.10711 -4.58885,-6.73275 -4.60203,-11.26065 -0.01,-3.29305 0.18142,-4.08968 1.68697,-7.03579 1.64719,-3.22327 2.39435,-3.92335 25.06955,-23.4899 66.375536,-57.275825 71.044386,-61.251395 73.294856,-62.411255 6.75469,-3.4813 16.43348,-3.35933 22.72384,0.28635 2.69921,1.56437 5.73601,4.15113 72.93964,62.130205 22.54012,19.44618 23.43114,20.27984 25.04038,23.42798 1.46615,2.86821 1.67099,3.72185 1.68824,7.03511 0.0238,4.5656 -1.35595,7.97838 -4.54579,11.24424 -3.31445,3.39342 -6.57843,4.63158 -12.80978,4.85928 l -5.2343,0.19127 -0.008,45.5941 c -0.008,49.33742 0.0181,48.80887 -2.64113,54.05646 -2.54988,5.03196 -7.9238902,9.67886 -13.7025302,11.84857 -2.80019005,1.05139 -3.52603005,1.0869 -25.5235498,1.24864 -12.45276,0.0916 -23.35819,0.033 -24.23427,-0.13023 -1.98403,-0.36957 -4.91184,-2.88707 -5.78332,-4.97281 -0.52421,-1.2546 -0.65784,-6.77387 -0.65784,-27.16858 0,-28.22069 0.0705,-27.52595 -3.07185,-30.28494 -2.2698,-1.99291 -3.89817,-2.21503 -14.76304,-2.01378 -8.4149,0.15586 -8.84893,0.21234 -10.53904,1.37147 -0.96949,0.6649 -2.2126,2.0094 -2.76247,2.98776 -0.97357,1.73223 -0.99978,2.45717 -0.99978,27.65624 0,20.89007 -0.1292,26.17936 -0.67039,27.44422 -0.81074,1.89481 -2.97374,3.99601 -4.83906,4.70077 -2.19863,0.8307 -45.105066,0.61969 -48.648426,-0.23926 z"
       id="path1-2" /></g></svg>
