<?xml version="1.0" encoding="UTF-8" standalone="no"?>
<!-- Created with Inkscape (http://www.inkscape.org/) -->

<svg
   width="102.65828mm"
   height="79.036308mm"
   viewBox="0 0 102.65828 79.036308"
   version="1.1"
   id="svg1"
   xml:space="preserve"
   xmlns:inkscape="http://www.inkscape.org/namespaces/inkscape"
   xmlns:sodipodi="http://sodipodi.sourceforge.net/DTD/sodipodi-0.dtd"
   xmlns="http://www.w3.org/2000/svg"
   xmlns:svg="http://www.w3.org/2000/svg"><sodipodi:namedview
     id="namedview1"
     pagecolor="#ffffff"
     bordercolor="#000000"
     borderopacity="0.25"
     inkscape:showpageshadow="2"
     inkscape:pageopacity="0.0"
     inkscape:pagecheckerboard="0"
     inkscape:deskcolor="#d1d1d1"
     inkscape:document-units="mm" /><defs
     id="defs1" /><g
     inkscape:label="Livello 1"
     inkscape:groupmode="layer"
     id="layer1"
     transform="translate(-231.31403,-166.03324)"><g
       id="g262826"><path
         style="fill:#f8991d;fill-opacity:1"
         d="m 294.31866,186.03968 c -8.44798,-5.34991 -10.47826,-6.72142 -10.25744,-6.92921 0.50809,-0.47811 20.53653,-13.07723 20.78847,-13.07723 0.24368,0 20.28931,12.59127 20.81943,13.07732 0.21063,0.19311 -1.26441,1.21787 -6.77333,4.70566 -3.87343,2.45234 -8.618,5.45663 -10.54349,6.6762 l -3.5009,2.2174 z"
         id="path262825" /><path
         style="fill:#f8991d;fill-opacity:1"
         d="m 249.43622,186.04268 c -8.52229,-5.3981 -10.47512,-6.7188 -10.2505,-6.93243 0.7658,-0.72833 20.78283,-13.19474 20.99066,-13.07278 1.19588,0.70177 20.41429,12.88787 20.61836,13.07379 0.20866,0.1901 -1.41264,1.30814 -7.3025,5.03576 -4.16389,2.63527 -8.91111,5.64028 -10.54938,6.67779 l -2.97867,1.88639 z"
         id="path262824" /><path
         style="fill:#706f5c;fill-opacity:1"
         d="m 269.62569,193.52057 v -4.76816 h 4.74861 4.7486 l 1.65024,2.8575 c 0.90763,1.57163 1.6997,2.8541 1.76015,2.84995 0.0605,-0.004 0.82746,-1.26622 1.70447,-2.80459 l 1.59456,-2.79702 4.80835,-0.0569 4.80836,-0.0569 v 4.76647 4.76648 h -3.27502 -3.27503 l -0.0587,-2.94874 -0.0587,-2.94874 -1.82159,2.89582 -1.82158,2.89582 h -2.61991 -2.6199 l -1.90851,-2.77686 -1.90851,-2.77686 -0.10584,2.77686 -0.10583,2.77686 -3.12208,0.0586 -3.12209,0.0586 z"
         id="path262823"
         inkscape:label="path262823" /><path
         style="fill:#706f5c;fill-opacity:1"
         d="m 237.45236,194.78491 v -3.4925 h -3.06917 -3.06916 v -1.27 -1.27 h 9.525 9.525 v 1.27 1.27 h -3.06917 -3.06917 v 3.4925 3.4925 h -3.38666 -3.38667 z"
         id="path262822" /><path
         style="fill:#706f5c;fill-opacity:1"
         d="m 319.26977,198.26837 c -2.52227,-0.39693 -4.76045,-1.24043 -5.79627,-2.18443 -0.73714,-0.6718 -1.09123,-1.48549 -1.09035,-2.5056 0.002,-2.36649 2.52524,-4.02789 7.18369,-4.73013 6.0318,-0.90927 12.47379,0.33852 13.85964,2.68456 l 0.35815,0.60631 h -3.2834 c -3.11718,0 -3.32132,-0.0257 -4.03232,-0.50823 -1.25364,-0.85074 -4.17196,-0.96977 -5.62038,-0.22924 -0.80242,0.41025 -1.27471,1.02887 -1.40676,1.84262 -0.2982,1.83762 1.23703,2.82034 4.37059,2.79767 1.32211,-0.01 2.02367,-0.12121 2.64584,-0.42105 l 0.84666,-0.40804 -1.54579,-0.0647 -1.54579,-0.0647 0.0641,-0.99592 0.0641,-0.99592 4.81542,-0.0569 4.81541,-0.0569 v 2.64981 2.64981 h -2.32833 c -2.22999,0 -2.32833,-0.0189 -2.32833,-0.44802 0,-0.32988 -0.0977,-0.41736 -0.37042,-0.33174 -2.12529,0.66717 -3.00228,0.80661 -5.55625,0.88338 -1.57163,0.0472 -3.42529,-0.004 -4.11926,-0.11266 z"
         id="path262821" /><path
         style="fill:#f8991d;fill-opacity:1"
         d="m 305.11385,221.40656 c -11.71857,-7.41905 -21.30351,-13.53886 -21.29988,-13.59958 0.009,-0.15191 20.71214,-13.22434 21.01922,-13.27208 0.13567,-0.0211 5.10442,3.027 11.04167,6.77353 l 10.795,6.81187 0.0545,13.38773 c 0.03,7.36325 -0.0262,13.38772 -0.12477,13.38772 -0.0986,0 -9.76717,-6.07013 -21.48574,-13.48919 z"
         id="path262820" /><path
         style="fill:#f8991d;fill-opacity:1"
         d="m 260.20653,221.42436 c -11.64167,-7.38754 -21.18797,-13.49847 -21.214,-13.57984 -0.0388,-0.12134 20.346,-13.13606 20.88073,-13.33133 0.0905,-0.033 5.0602,3.01757 11.04387,6.77913 l 10.8794,6.8392 0.0545,13.38211 c 0.0434,10.6441 4e-5,13.37808 -0.21166,13.36238 -0.14639,-0.0109 -9.79117,-6.0641 -21.43283,-13.45165 z"
         id="path262819" /><path
         style="fill:#706f5c;fill-opacity:1"
         d="m 282.96069,221.98723 c 0,-7.64024 0.0793,-13.13216 0.18913,-13.0912 0.38455,0.14346 20.54456,12.98603 20.54536,13.08806 4.6e-4,0.0582 -4.35505,2.84695 -9.67891,6.19722 -5.32386,3.35026 -9.9893,6.28855 -10.36766,6.52953 l -0.68792,0.43815 z"
         id="path262818" /><path
         style="fill:#706f5c;fill-opacity:1"
         d="m 238.08736,221.96553 c 0,-7.26779 0.0815,-13.10853 0.1824,-13.06951 0.39452,0.15261 20.54916,12.98883 20.55006,13.08806 7.6e-4,0.084 -10.4002,6.67363 -19.2924,12.22284 l -1.44006,0.89867 z"
         id="path262817" /><path
         style="fill:#706f5c;fill-opacity:1"
         d="m 328.18517,234.88439 c -0.30394,-0.23908 -0.65948,-0.79135 -0.79008,-1.22726 -0.31605,-1.05488 0.14074,-2.19465 1.07271,-2.67659 1.87798,-0.97114 3.68506,1.27293 2.64487,3.28444 -0.57969,1.12101 -1.92733,1.40614 -2.9275,0.61941 z m 2.30231,-3.26472 c -0.53618,-0.49488 -0.87368,-0.55007 -1.336,-0.44068 -0.81906,0.1938 -1.39935,0.87738 -1.39935,1.80666 0,1.69432 1.53607,2.40603 2.49959,1.70748 1.04508,-0.75769 0.8209,-2.53339 0.23576,-3.07346 z m -1.80678,1.4894 c 0,-1.2996 -0.0573,-1.49588 0.38855,-1.49033 0.30656,0.004 0.67012,0.0489 0.86413,0.20438 0.35744,0.28649 0.36337,0.82192 -0.0418,1.27581 -0.0863,0.0967 0.18856,0.50418 0.29283,0.84431 0.11623,0.37917 0.13563,0.39897 -0.13156,0.39406 -0.31984,-0.006 -0.29688,-0.25687 -0.38667,-0.47982 -0.25119,-0.62368 -0.48062,-0.73788 -0.49087,-0.10319 -0.007,0.45912 0.0586,0.61242 -0.28291,0.61227 -0.30721,-1.3e-4 -0.21166,-0.38586 -0.21166,-1.25751 z m 1.0183,-0.50175 c 0.0491,-0.207 -0.14896,-0.42645 -0.34604,-0.42645 -0.19635,0 -0.23658,0.11731 -0.23658,0.37731 0,0.51584 0.47964,0.48294 0.58262,0.0491 z"
         id="path262816"
         sodipodi:nodetypes="ssssssssssssssssssssssssss" /><path
         style="fill:#706f5c;fill-opacity:1;stroke-width:0.0206619"
         d="m 311.33122,245.0093 c -0.0908,-0.036 -0.23863,-0.0929 -0.32835,-0.12628 -0.40401,-0.15072 -0.74865,-0.49857 -0.80896,-0.81651 -0.0555,-0.293 -0.004,-0.31412 0.77365,-0.31412 0.62895,0 0.66273,0.005 0.79489,0.11614 0.16604,0.13972 0.39142,0.18904 0.60766,0.13302 0.21476,-0.0557 0.38863,-0.35833 0.36812,-0.64083 -0.013,-0.1793 -0.0256,-0.19718 -0.12991,-0.18553 -0.0635,0.007 -0.15179,0.0457 -0.19613,0.0858 -0.1205,0.10906 -0.69225,0.17389 -1.07079,0.12142 -0.73123,-0.10132 -1.25557,-0.7181 -1.37982,-1.62307 -0.16695,-1.21604 0.30492,-2.26117 1.14228,-2.53001 0.51504,-0.16536 0.60171,-0.16877 0.97472,-0.0385 0.1875,0.0655 0.39632,0.16269 0.46404,0.21596 0.15849,0.12466 0.19503,0.12201 0.30865,-0.0225 0.0934,-0.11878 0.0967,-0.11924 0.76211,-0.10622 l 0.66829,0.013 v 2.24705 c 0,1.63142 -0.0152,2.27809 -0.0557,2.36036 -0.0307,0.0623 -0.0803,0.19364 -0.11036,0.29181 -0.0645,0.21058 -0.47637,0.63643 -0.65561,0.6778 -0.0674,0.0155 -0.17557,0.0627 -0.24047,0.1048 -0.16376,0.10618 -1.64011,0.13448 -1.88829,0.0362 z m 1.03637,-2.92514 c 0.23376,-0.0983 0.39851,-0.48057 0.36798,-0.85384 -0.0488,-0.59593 -0.4329,-0.92105 -0.83976,-0.71066 -0.21655,0.11199 -0.32883,0.38243 -0.3271,0.78787 9.7e-4,0.2794 0.0229,0.379 0.11537,0.52952 0.17047,0.27747 0.4075,0.36316 0.68351,0.24711 z m 11.54436,2.94427 c -0.35137,-0.0992 -0.62617,-0.24223 -0.85832,-0.44691 -0.13808,-0.12174 -0.25105,-0.24927 -0.25105,-0.28342 0,-0.0341 -0.0318,-0.0885 -0.0708,-0.12085 -0.10269,-0.0852 -0.0901,-0.31682 0.0205,-0.376 0.0504,-0.027 0.38676,-0.0489 0.75171,-0.0489 0.62942,0 0.66673,0.006 0.79593,0.11407 0.17938,0.15093 0.41519,0.1902 0.64952,0.10816 0.21087,-0.0739 0.2486,-0.15279 0.25602,-0.53582 0.006,-0.28484 -0.0684,-0.344 -0.25063,-0.20063 -0.27924,0.21964 -1.15309,0.22389 -1.53854,0.008 -0.44359,-0.24906 -0.67541,-0.54412 -0.86968,-1.10693 -0.30337,-0.87896 -0.0451,-2.08326 0.56103,-2.61616 0.25345,-0.22282 0.7014,-0.39982 1.03905,-0.41057 0.31024,-0.01 0.75007,0.14966 0.97204,0.35257 0.10878,0.0994 0.20572,0.18079 0.21542,0.18079 0.01,0 0.0177,-0.0439 0.0177,-0.0975 0,-0.0536 0.022,-0.13861 0.0489,-0.18882 0.0444,-0.0831 0.10415,-0.0913 0.664,-0.0913 0.33833,0 0.65623,0.022 0.70645,0.0489 0.0879,0.0471 0.0913,0.11831 0.0906,1.94731 -6.2e-4,1.66913 -0.0118,1.95898 -0.0919,2.39975 -0.0702,0.38595 -0.1246,0.55091 -0.23648,0.71669 -0.15463,0.22913 -0.49001,0.50506 -0.61387,0.50506 -0.0411,0 -0.12713,0.0371 -0.19134,0.0826 -0.0983,0.0696 -0.2393,0.084 -0.89563,0.0915 -0.42841,0.005 -0.84265,-0.009 -0.92056,-0.031 z m 0.9999,-2.97277 c 0.23306,-0.10582 0.29778,-0.27057 0.29778,-0.75805 0,-0.45977 -0.0597,-0.61834 -0.27983,-0.74351 -0.24847,-0.14128 -0.41634,-0.13271 -0.61416,0.0313 -0.16132,0.13376 -0.16299,0.13912 -0.18243,0.58355 -0.0259,0.59413 0.0316,0.7696 0.29141,0.88756 0.24069,0.1093 0.24461,0.10929 0.48723,-6.9e-4 z m -81.18076,1.5996 c -0.0905,-0.0504 -0.18722,-0.0917 -0.21498,-0.0917 -0.0713,0 -0.31659,-0.2722 -0.44659,-0.49568 -0.17997,-0.30939 -0.23396,-0.84656 -0.23508,-2.33911 -6.9e-4,-0.98651 0.0142,-1.36297 0.0556,-1.40443 0.0792,-0.0792 1.45978,-0.0792 1.53896,0 0.0413,0.0413 0.0566,0.40444 0.0566,1.33844 0,1.25344 0.002,1.28527 0.10688,1.44038 0.18369,0.27255 0.60044,0.26318 0.80924,-0.0182 0.0936,-0.12614 0.0997,-0.20128 0.11471,-1.41623 0.01,-0.79173 0.0346,-1.30561 0.0648,-1.34203 0.0677,-0.0817 1.50432,-0.0838 1.58576,-0.002 0.0892,0.0892 0.0807,4.16046 -0.009,4.23476 -0.0444,0.0368 -0.28346,0.05 -0.74245,0.0412 l -0.67699,-0.0131 -0.0429,-0.14162 c -0.0236,-0.0779 -0.0495,-0.16682 -0.0575,-0.19761 -0.009,-0.0318 -0.0917,0.0147 -0.19329,0.10774 -0.31486,0.28841 -0.62352,0.39712 -1.11862,0.39401 -0.33517,-0.002 -0.46753,-0.0231 -0.59546,-0.0944 z m 8.75898,-0.0275 c -0.18021,-0.0613 -0.33955,-0.12973 -0.35405,-0.15206 -0.0145,-0.0223 -0.0901,-0.0733 -0.16799,-0.11319 -0.31124,-0.15955 -0.62177,-0.58633 -0.78114,-1.07355 -0.23057,-0.70493 -0.12143,-1.6544 0.25422,-2.21136 0.15061,-0.2233 0.54564,-0.62108 0.61679,-0.62108 0.0244,0 0.0795,-0.0318 0.12235,-0.0706 0.0841,-0.0762 0.66928,-0.23899 1.02945,-0.28649 0.29523,-0.0389 1.03796,0.1358 1.36832,0.32192 0.36346,0.20478 0.65758,0.52246 0.83823,0.90544 0.13009,0.2758 0.16266,0.41116 0.18812,0.78201 0.0623,0.90731 -0.1277,1.56683 -0.58142,2.01826 -0.26082,0.25952 -0.43448,0.36316 -0.85978,0.51314 -0.43526,0.15347 -1.20211,0.14779 -1.6731,-0.0124 z m 1.1489,-1.21824 c 0.2114,-0.10932 0.34722,-0.54323 0.32291,-1.03167 -0.0337,-0.67581 -0.22925,-0.98506 -0.62313,-0.98506 -0.19581,0 -0.24141,0.02 -0.35893,0.15737 -0.16368,0.19132 -0.20441,0.36645 -0.20672,0.88908 -0.002,0.52483 0.0393,0.7025 0.20743,0.88663 0.11315,0.1239 0.17452,0.15192 0.33259,0.15192 0.10661,0 0.25324,-0.0307 0.32585,-0.0683 z m 10.74457,1.24845 c -0.10385,-0.0502 -0.21095,-0.0919 -0.23801,-0.0928 -0.12189,-0.004 -0.4481,-0.41638 -0.53951,-0.68207 -0.12139,-0.35278 -0.12079,-0.5679 0.003,-0.94991 0.0821,-0.25403 0.13912,-0.33946 0.34306,-0.51369 0.13454,-0.11494 0.30799,-0.22424 0.38544,-0.24286 0.0774,-0.0187 0.19912,-0.0633 0.2704,-0.0992 0.0713,-0.0359 0.33681,-0.0852 0.59009,-0.10968 0.43887,-0.0423 0.86416,-0.14916 0.99159,-0.24913 0.0783,-0.0614 0.0754,-0.2928 -0.005,-0.35912 -0.20584,-0.17085 -0.66533,-0.0904 -0.79736,0.13972 l -0.0789,0.13744 h -0.66621 c -0.36895,0 -0.70694,-0.0218 -0.7575,-0.0489 -0.10465,-0.056 -0.11675,-0.21163 -0.0384,-0.49402 0.0712,-0.2566 0.28233,-0.51078 0.55036,-0.66253 0.31812,-0.18011 1.01813,-0.31904 1.59187,-0.31593 0.51184,0.003 1.20205,0.14061 1.34306,0.26821 0.0444,0.0401 0.10177,0.0729 0.12766,0.0729 0.0728,0 0.23057,0.19059 0.35166,0.42487 0.10668,0.20643 0.1105,0.25667 0.13506,1.7772 0.0237,1.46772 0.031,1.57109 0.1177,1.66683 0.0712,0.0786 0.0808,0.12041 0.0421,0.18189 -0.0433,0.0687 -0.15701,0.0817 -0.81386,0.0928 l -0.76357,0.013 -0.0811,-0.1425 c -0.0446,-0.0784 -0.0917,-0.14255 -0.10469,-0.14261 -0.013,0 -0.098,0.0466 -0.18883,0.10359 -0.38732,0.24311 -0.66191,0.32042 -1.13298,0.31897 -0.34449,-9.7e-4 -0.49224,-0.0226 -0.63729,-0.0926 z m 1.68741,-1.12118 c 0.15925,-0.16723 0.26826,-0.56744 0.17229,-0.63256 -0.16936,-0.1149 -0.75453,0.0688 -0.95096,0.29856 -0.11033,0.12906 -0.10431,0.19059 0.0332,0.33892 0.0974,0.10514 0.1558,0.12491 0.36882,0.12491 0.21463,0 0.27183,-0.0197 0.37668,-0.12983 z m 7.29856,1.0966 c -0.84049,-0.2941 -1.31642,-0.87604 -1.41804,-1.73389 -0.0609,-0.51463 0.007,-1.17084 0.1476,-1.43394 0.0535,-0.0998 0.0973,-0.20518 0.0973,-0.23411 0,-0.0933 0.63054,-0.71099 0.84973,-0.83243 0.31513,-0.17458 1.00346,-0.33614 1.26507,-0.29691 0.37031,0.0555 0.83138,0.18741 0.95237,0.27241 0.0642,0.0451 0.1397,0.082 0.1678,0.082 0.0799,0 0.60014,0.53322 0.72331,0.74145 0.18326,0.3098 0.29611,0.67489 0.3446,1.11496 0.0335,0.30424 0.0313,0.43419 -0.009,0.4819 -0.0435,0.0524 -0.3335,0.0681 -1.46242,0.0791 -0.77452,0.008 -1.42418,0.0297 -1.44368,0.0493 -0.0195,0.0196 0.0122,0.13725 0.0704,0.26155 0.0782,0.16688 0.15743,0.25332 0.30305,0.33044 0.31729,0.16806 0.54072,0.12364 0.82461,-0.16394 0.10269,-0.10404 0.14076,-0.10953 0.75808,-0.10953 0.79836,0 0.85886,0.0266 0.76661,0.33653 -0.0791,0.26577 -0.41524,0.65949 -0.70086,0.82089 -0.12312,0.0695 -0.37852,0.1775 -0.56756,0.23985 -0.47691,0.15729 -1.2111,0.15482 -1.66963,-0.006 z m 1.40622,-2.78436 c 0.0397,-0.10369 -0.0193,-0.29584 -0.12273,-0.3993 -0.1514,-0.15139 -0.39816,-0.19408 -0.66456,-0.11496 -0.20636,0.0613 -0.24466,0.0939 -0.33012,0.28153 -0.0531,0.11673 -0.084,0.2328 -0.0684,0.25793 0.0156,0.0254 0.27991,0.0457 0.59344,0.0457 0.45921,0 0.57029,-0.0133 0.5924,-0.0709 z m 3.48755,2.85743 c -0.0156,-0.0253 -0.10911,-0.0676 -0.20779,-0.0942 -0.43919,-0.11825 -0.83025,-0.62212 -1.04233,-1.34301 -0.1151,-0.39128 -0.1303,-1.09931 -0.0302,-1.40663 0.0363,-0.11125 0.0915,-0.31386 0.12276,-0.45025 0.0312,-0.1364 0.0763,-0.26001 0.10004,-0.27468 0.0237,-0.0147 0.0721,-0.0959 0.10752,-0.18069 0.0354,-0.0847 0.17027,-0.25991 0.29972,-0.38937 0.27128,-0.27126 0.70949,-0.46306 1.05073,-0.45987 0.24886,0.002 0.69113,0.13728 0.82613,0.25208 0.0519,0.0442 0.13159,0.0718 0.17703,0.0614 0.0745,-0.0171 0.0826,-0.0945 0.0826,-0.79647 0,-0.76265 0.002,-0.77983 0.11586,-0.89346 0.112,-0.11199 0.13799,-0.11588 0.77726,-0.11588 0.60558,0 0.66551,0.008 0.71026,0.0913 0.0744,0.13918 0.067,5.77258 -0.008,5.84736 -0.0384,0.0384 -0.25869,0.0567 -0.68264,0.0567 -0.6444,0 -0.64542,0 -0.79304,-0.21244 -0.0648,-0.0931 -0.0674,-0.0928 -0.19903,0.0285 -0.25498,0.23487 -0.52583,0.32566 -0.97157,0.32566 -0.22395,0 -0.41995,-0.0206 -0.43555,-0.0459 z m 1.22709,-1.39748 c 0.11766,-0.0898 0.18612,-0.20184 0.26138,-0.42799 0.11849,-0.35606 0.1009,-0.59585 -0.0724,-0.98784 -0.11978,-0.27086 -0.18861,-0.31152 -0.52732,-0.31152 -0.41315,0 -0.58158,0.38048 -0.52128,1.17759 0.024,0.31771 0.0423,0.36957 0.18078,0.51243 0.19834,0.20463 0.44198,0.21804 0.67889,0.0373 z m 11.12679,1.33499 c -0.65547,-0.27307 -0.94834,-0.94149 -0.7353,-1.67819 0.11169,-0.38623 0.42435,-0.71131 0.76198,-0.79222 0.0707,-0.017 0.18607,-0.0598 0.25633,-0.0952 0.0703,-0.0354 0.33579,-0.0856 0.59009,-0.11163 0.43264,-0.0443 0.85773,-0.15173 0.99343,-0.25118 0.0325,-0.0237 0.059,-0.10395 0.059,-0.17813 0,-0.10894 -0.034,-0.15161 -0.17704,-0.22185 -0.0974,-0.0478 -0.21951,-0.0787 -0.27144,-0.0686 -0.1504,0.0293 -0.40125,0.15414 -0.40125,0.19966 0,0.0229 -0.0334,0.075 -0.0742,0.1158 -0.0605,0.0605 -0.19819,0.0742 -0.74587,0.0742 -0.73294,0 -0.78518,-0.0171 -0.78473,-0.25728 9.6e-4,-0.60297 0.46237,-1.01597 1.32153,-1.18321 0.56464,-0.10991 1.17175,-0.10349 1.71613,0.0181 0.34559,0.0772 0.45557,0.12528 0.63548,0.27775 0.11966,0.10143 0.27108,0.27831 0.33647,0.39307 0.1189,0.20866 0.1189,0.2088 0.14344,1.77347 0.023,1.46834 0.0302,1.57107 0.11696,1.66683 0.0712,0.0785 0.0808,0.12038 0.0421,0.18186 -0.0432,0.0686 -0.15631,0.0817 -0.80054,0.093 l -0.75024,0.0131 -0.12461,-0.15252 -0.12461,-0.15253 -0.15863,0.11864 c -0.4392,0.3285 -1.30865,0.43188 -1.82453,0.21696 z m 1.72423,-1.09212 c 0.164,-0.13798 0.29359,-0.58068 0.1906,-0.65115 -0.18428,-0.12608 -0.84113,0.1069 -0.97522,0.34591 -0.0631,0.11255 -0.06,0.1354 0.0368,0.27145 0.096,0.13494 0.12894,0.14856 0.35858,0.14856 0.19887,0 0.2819,-0.0245 0.38919,-0.11477 z m 3.97668,1.0848 c -0.67972,-0.24098 -1.10357,-0.66977 -1.34045,-1.35606 -0.17031,-0.49343 -0.17128,-1.10247 -0.003,-1.61921 0.24979,-0.76522 0.72751,-1.2249 1.5095,-1.45251 0.58049,-0.16896 1.3367,-0.0927 1.90426,0.19203 0.28292,0.14194 0.64799,0.51413 0.74912,0.76373 0.0368,0.0908 0.0988,0.2349 0.13768,0.32006 0.039,0.0851 0.0641,0.22202 0.056,0.30413 -0.0124,0.12639 -0.04,0.15581 -0.17992,0.19184 -0.0908,0.0234 -0.43284,0.0352 -0.75992,0.0263 -0.62096,-0.017 -0.75071,-0.0574 -0.75071,-0.2337 0,-0.0483 -0.0589,-0.1538 -0.13088,-0.23434 -0.11056,-0.12375 -0.16591,-0.147 -0.35679,-0.1499 -0.19887,-0.003 -0.24355,0.0158 -0.37317,0.15754 -0.1714,0.18735 -0.22045,0.39003 -0.22174,0.91625 -9.7e-4,0.48818 0.0529,0.71019 0.2143,0.8786 0.10404,0.10861 0.1716,0.13636 0.332,0.13636 0.28139,0 0.42556,-0.0793 0.50505,-0.27786 0.13143,-0.32822 0.16673,-0.33993 0.98049,-0.3253 l 0.7266,0.013 0.0142,0.21991 c 0.01,0.15307 -0.0152,0.27483 -0.0826,0.40057 -0.0532,0.0993 -0.0968,0.20426 -0.0968,0.23314 0,0.0288 -0.0425,0.10353 -0.0947,0.16592 -0.51621,0.6184 -0.93754,0.80503 -1.86442,0.8259 -0.49222,0.0111 -0.60687,-9.7e-4 -0.87455,-0.0965 z m 9.32332,0.004 c -0.29548,-0.12565 -0.46261,-0.25564 -0.62646,-0.48721 -0.12072,-0.17061 -0.12751,-0.20919 -0.12751,-0.72311 0,-0.51657 0.007,-0.55318 0.1352,-0.75532 0.14731,-0.23142 0.42454,-0.45165 0.63093,-0.50115 0.0719,-0.0173 0.18912,-0.0607 0.26038,-0.0966 0.0713,-0.0359 0.3393,-0.0852 0.5956,-0.10969 0.27376,-0.0261 0.59034,-0.0907 0.76735,-0.15678 0.26714,-0.0996 0.30293,-0.12796 0.31524,-0.24955 0.0116,-0.11417 -0.0122,-0.15025 -0.14162,-0.21522 -0.0855,-0.0429 -0.1894,-0.0888 -0.23081,-0.10193 -0.1045,-0.0332 -0.42081,0.11875 -0.55843,0.26816 -0.11328,0.12299 -0.12125,0.12424 -0.78494,0.12424 -0.77702,0 -0.80133,-0.0116 -0.76631,-0.36609 0.0322,-0.32609 0.26167,-0.63897 0.62756,-0.85574 0.25971,-0.15386 0.99525,-0.30073 1.5102,-0.30154 0.5497,-6.9e-4 1.1759,0.12659 1.44511,0.29416 0.27842,0.17328 0.47589,0.46697 0.51948,0.77256 0.0192,0.13433 0.0364,0.82233 0.0383,1.52888 0.003,1.14681 0.0131,1.30912 0.0933,1.51274 0.14802,0.37554 0.12356,0.3891 -0.70232,0.3891 -0.68008,0 -0.70655,-0.004 -0.8424,-0.11802 -0.16049,-0.13503 -0.23014,-0.14562 -0.33535,-0.0509 -0.041,0.0368 -0.22045,0.12183 -0.3988,0.18882 -0.42805,0.16077 -1.05914,0.16535 -1.42374,0.0103 z m 1.60793,-1.00134 c 0.11278,-0.0303 0.3303,-0.36036 0.37106,-0.56304 0.047,-0.23332 -0.002,-0.26035 -0.34954,-0.19304 -0.56691,0.10979 -0.79238,0.34058 -0.63327,0.64826 0.0619,0.11968 0.0949,0.13482 0.29277,0.13424 0.12266,0 0.2662,-0.0123 0.31898,-0.0264 z m -58.25706,0.97171 c -0.34284,-0.0504 -0.41499,-0.0801 -0.55967,-0.2312 -0.23845,-0.24888 -0.31023,-0.68083 -0.31115,-1.87239 -6.9e-4,-1.11777 -0.009,-1.15421 -0.24291,-1.15421 -0.23764,0 -0.28198,-0.10073 -0.26703,-0.60637 0.0107,-0.3617 0.028,-0.45658 0.0843,-0.46391 0.039,-0.005 0.15046,-0.0222 0.24783,-0.0381 l 0.17703,-0.0289 v -0.55703 c 0,-0.74343 -0.0374,-0.71328 0.88607,-0.71328 0.51889,0 0.72381,0.0161 0.7516,0.059 0.021,0.0325 0.0488,0.32456 0.0618,0.64911 l 0.0236,0.59009 0.28161,0.0145 c 0.15488,0.008 0.3089,0.037 0.34225,0.0647 0.0867,0.0719 0.0822,0.79371 -0.006,0.91396 -0.0476,0.0652 -0.14411,0.0976 -0.34224,0.11523 l -0.27593,0.0245 -0.0128,0.90983 c -0.0143,1.01445 -0.0412,0.93809 0.34916,0.99391 0.1775,0.0255 0.2409,0.0585 0.28727,0.15018 0.0662,0.13096 0.0831,0.97721 0.0214,1.07442 -0.0208,0.033 -0.11072,0.0807 -0.1996,0.10622 -0.18291,0.0524 -0.93883,0.0523 -1.29689,0 z m 21.03255,0.0233 c -0.0389,-0.01 -0.17004,-0.0309 -0.29131,-0.0468 -0.25635,-0.0336 -0.45909,-0.18983 -0.61362,-0.47274 -0.0966,-0.17682 -0.10487,-0.26986 -0.13019,-1.46343 l -0.0271,-1.27459 -0.20742,-0.0277 c -0.2872,-0.0383 -0.33546,-0.12353 -0.33546,-0.59226 0,-0.43658 0.01,-0.45071 0.33045,-0.48822 l 0.21243,-0.0248 0.0236,-0.59009 c 0.013,-0.32456 0.0408,-0.61665 0.0618,-0.64911 0.0278,-0.043 0.23436,-0.059 0.7598,-0.059 0.91518,0 0.87787,-0.0306 0.87787,0.71858 0,0.61991 -0.0111,0.60323 0.40006,0.60323 0.1851,0 0.25824,0.0196 0.27939,0.0746 0.0456,0.11893 0.0332,0.75704 -0.0174,0.89 -0.0409,0.10744 -0.0723,0.12111 -0.27938,0.12111 -0.40356,0 -0.38269,-0.0487 -0.38269,0.89295 0,0.98314 0.007,1.00279 0.38239,1.04074 0.30301,0.0307 0.31417,0.0554 0.32102,0.71269 0.007,0.63475 0.015,0.62712 -0.70971,0.64121 -0.32108,0.006 -0.61565,0.004 -0.6546,-0.006 z m -33.22449,-0.0805 c -0.0779,-0.0779 -0.0689,-0.17086 0.0378,-0.39182 0.0501,-0.10387 0.0924,-0.23132 0.0938,-0.28326 9.6e-4,-0.0519 0.0438,-0.18498 0.094,-0.29569 0.0502,-0.11071 0.10576,-0.28065 0.12337,-0.37765 0.0175,-0.097 0.0687,-0.25073 0.11366,-0.3416 0.0449,-0.0908 0.0967,-0.2502 0.11512,-0.35406 0.0184,-0.10385 0.0609,-0.23152 0.0944,-0.2837 0.0336,-0.0522 0.0838,-0.20132 0.1117,-0.33143 0.0279,-0.1301 0.0837,-0.29983 0.12408,-0.37719 0.0404,-0.0773 0.0735,-0.17848 0.0737,-0.22469 0,-0.0462 0.0534,-0.21021 0.11832,-0.36444 0.0649,-0.15421 0.11801,-0.32438 0.11801,-0.37811 0,-0.0538 0.0396,-0.17653 0.088,-0.27286 0.0484,-0.0963 0.1031,-0.26012 0.1215,-0.36398 0.0184,-0.10386 0.0613,-0.23217 0.0954,-0.28514 0.034,-0.0529 0.0866,-0.21229 0.11664,-0.35406 0.0301,-0.14176 0.1133,-0.34272 0.18485,-0.44657 l 0.1301,-0.18883 h 0.83067 c 0.93405,0 0.99117,0.0184 1.05157,0.34044 0.0174,0.093 0.0605,0.21373 0.0956,0.26836 0.0352,0.0546 0.079,0.18428 0.0974,0.28813 0.0184,0.10386 0.0702,0.26319 0.11512,0.35406 0.0449,0.0909 0.096,0.24461 0.11365,0.3416 0.0175,0.097 0.0731,0.26696 0.12337,0.37767 0.0502,0.1107 0.092,0.24375 0.0927,0.29569 6.8e-4,0.0519 0.0343,0.15771 0.0746,0.23507 0.0403,0.0773 0.0961,0.2471 0.12407,0.37721 0.0279,0.13009 0.0782,0.27923 0.11169,0.33142 0.0335,0.0522 0.0761,0.17983 0.0944,0.28369 0.0184,0.10385 0.0702,0.26318 0.11514,0.35406 0.0449,0.0908 0.096,0.24459 0.11366,0.3416 0.0175,0.097 0.0731,0.26695 0.12335,0.37766 0.0502,0.11069 0.0918,0.23962 0.0924,0.28647 6.9e-4,0.0469 0.0412,0.17434 0.0902,0.28325 0.049,0.10893 0.104,0.28822 0.12213,0.39843 0.0181,0.1102 0.0537,0.21323 0.0792,0.22892 0.0271,0.0168 0.0126,0.0657 -0.035,0.11827 -0.0739,0.0816 -0.15537,0.0898 -0.89836,0.0898 -0.91034,0 -0.87256,0.014 -0.94025,-0.34682 -0.0637,-0.33997 -0.12389,-0.36129 -1.01892,-0.36129 -0.87089,0 -0.79844,-0.0264 -0.86735,0.31644 -0.0167,0.0831 -0.0729,0.20531 -0.12496,0.27144 l -0.0946,0.12023 h -0.78964 c -0.55125,0 -0.80678,-0.0171 -0.84631,-0.0566 z m 3.18157,-2.08603 c 0.0337,-0.0877 -0.0581,-0.59903 -0.1706,-0.9494 -0.05,-0.15578 -0.10916,-0.37885 -0.13153,-0.49568 l -0.0407,-0.21243 -0.14949,0.30685 c -0.0822,0.16876 -0.14949,0.36579 -0.14952,0.43783 0,0.072 -0.0425,0.25189 -0.0944,0.39964 -0.0519,0.14773 -0.0944,0.3384 -0.0944,0.42368 v 0.15507 h 0.40274 c 0.30006,0 0.40915,-0.0167 0.4279,-0.0656 z m 16.21285,2.05136 c -0.0741,-0.1383 -0.0666,-4.12069 0.008,-4.1951 0.079,-0.079 1.36561,-0.079 1.44454,0 0.0311,0.0311 0.0566,0.10424 0.0566,0.16243 0,0.14766 0.0858,0.18491 0.18666,0.081 0.24691,-0.25452 0.66953,-0.45024 0.99044,-0.45866 0.41692,-0.0109 1.03393,0.28083 1.18303,0.55941 0.0579,0.108 0.0649,0.10936 0.1836,0.0352 0.0679,-0.0424 0.15806,-0.1101 0.20031,-0.15036 0.20391,-0.19431 0.31886,-0.25876 0.64712,-0.36295 0.37617,-0.1194 0.4589,-0.11805 0.98654,0.0161 0.391,0.0994 0.66353,0.34833 0.84227,0.76933 l 0.13028,0.30685 0.0214,1.56201 c 0.0155,1.12893 0.006,1.59034 -0.0332,1.66407 -0.0522,0.0975 -0.0854,0.10203 -0.75768,0.10203 -0.57621,0 -0.71646,-0.0134 -0.77725,-0.0742 -0.0634,-0.0632 -0.0741,-0.23904 -0.0741,-1.19521 0,-0.89004 -0.0156,-1.17388 -0.0756,-1.37744 -0.10106,-0.34262 -0.13465,-0.37443 -0.39538,-0.37443 -0.19369,0 -0.24003,0.0201 -0.34827,0.15072 l -0.12487,0.15073 v 1.28179 c 0,1.18181 -0.007,1.28787 -0.0863,1.3599 -0.0718,0.065 -0.19928,0.0781 -0.75842,0.0781 -0.37302,0 -0.71273,-0.0218 -0.7634,-0.0489 -0.0854,-0.0457 -0.0916,-0.11029 -0.0955,-1.00315 -0.002,-0.52486 -0.0185,-1.14225 -0.036,-1.37198 -0.0368,-0.48372 -0.11902,-0.59727 -0.43198,-0.59727 -0.41968,0 -0.47891,0.20193 -0.50552,1.72307 -0.0177,1.01561 -0.0313,1.18841 -0.097,1.23919 -0.0532,0.0412 -0.2881,0.059 -0.77383,0.059 -0.6412,0 -0.70135,-0.008 -0.74628,-0.0913 z m 28.47378,0.0347 c -0.0428,-0.0428 -0.0567,-0.75217 -0.0567,-2.90325 0,-2.78366 0.002,-2.8487 0.0944,-2.94101 0.0899,-0.0899 0.15736,-0.0944 1.40712,-0.0944 1.8832,0 2.42741,0.11402 2.94038,0.61602 0.33421,0.32705 0.46455,0.59403 0.5175,1.05991 0.0636,0.56045 -0.0113,1.18968 -0.17635,1.48035 -0.13876,0.24432 -0.52476,0.66752 -0.60888,0.66752 -0.0299,0 -0.10709,0.0414 -0.17147,0.0921 -0.17727,0.13943 -0.96034,0.28557 -1.53018,0.28557 -0.43268,0 -0.49191,0.0101 -0.53537,0.0913 -0.0279,0.0521 -0.0489,0.4167 -0.0489,0.84807 0,0.69986 -0.007,0.76043 -0.0913,0.80562 -0.13367,0.0715 -1.66788,0.0647 -1.74033,-0.008 z m 2.93816,-3.3669 c 0.17306,-0.132 0.23319,-0.34247 0.18463,-0.64618 -0.0391,-0.24415 -0.29439,-0.39065 -0.75818,-0.43499 -0.52368,-0.05 -0.53296,-0.0395 -0.53296,0.6039 0,0.29335 0.0142,0.54752 0.0314,0.56483 0.0173,0.0173 0.23116,0.0314 0.47522,0.0314 0.40162,0 0.45858,-0.0114 0.59982,-0.11904 z m 12.46895,3.34936 c -0.0658,-0.0658 -0.0741,-0.39399 -0.0741,-2.89982 v -2.82564 l 0.12869,-0.10122 c 0.11985,-0.0943 0.17316,-0.10018 0.7767,-0.086 0.45083,0.0106 0.66664,0.0339 0.70924,0.0765 0.0459,0.0459 0.0672,0.37717 0.0849,1.31793 0.0177,0.94593 0.0382,1.26148 0.0825,1.27623 0.0324,0.0108 0.0731,-0.0194 0.0903,-0.0669 0.0173,-0.0475 0.0609,-0.1184 0.0973,-0.15734 0.0363,-0.0389 0.15157,-0.18765 0.25617,-0.33045 0.37471,-0.51156 0.27048,-0.47207 1.24641,-0.47207 0.68843,0 0.87049,0.0134 0.91547,0.0676 0.0444,0.0535 0.0382,0.0864 -0.0296,0.15689 -0.0471,0.0491 -0.22385,0.24545 -0.39263,0.43636 -0.16876,0.19091 -0.3387,0.38102 -0.37764,0.42246 -0.49788,0.52971 -0.52051,0.6376 -0.22889,1.09059 0.10779,0.16744 0.26998,0.42127 0.36042,0.56407 0.0904,0.1428 0.20404,0.31719 0.25248,0.38755 0.0484,0.0704 0.088,0.14849 0.088,0.17366 0,0.0252 0.0291,0.0748 0.0647,0.11044 0.0356,0.0356 0.10227,0.13799 0.14821,0.2276 0.0459,0.0896 0.0974,0.17353 0.11445,0.18651 0.0171,0.013 0.0768,0.10277 0.13279,0.19953 0.17199,0.29703 0.10947,0.31976 -0.87954,0.31976 h -0.83753 l -0.12087,-0.12982 c -0.11698,-0.12565 -0.16208,-0.19977 -0.36623,-0.6019 -0.0527,-0.10385 -0.11738,-0.22069 -0.14369,-0.25964 -0.0263,-0.0389 -0.0686,-0.12923 -0.0938,-0.20063 -0.036,-0.10144 -0.0761,-0.12982 -0.18375,-0.12982 -0.0821,0 -0.14933,0.0302 -0.1664,0.0746 -0.0157,0.0411 -0.0286,0.31299 -0.0286,0.60426 0,0.34896 -0.0193,0.5489 -0.0566,0.58624 -0.039,0.0391 -0.27935,0.0567 -0.77555,0.0567 -0.5906,0 -0.73214,-0.0133 -0.79308,-0.0742 z m 15.08103,-0.0171 c -0.0741,-0.13831 -0.0666,-4.1207 0.008,-4.19512 0.072,-0.072 1.41886,-0.0788 1.5515,-0.008 0.0881,0.0472 0.0913,0.12041 0.0913,2.09806 v 2.04917 l -0.10491,0.0735 c -0.0834,0.0584 -0.24739,0.0735 -0.80087,0.0735 -0.63974,0 -0.69989,-0.008 -0.74481,-0.0913 z m 2.41119,0.0268 c -0.0385,-0.0464 -0.05,-0.65202 -0.0412,-2.15973 l 0.0122,-2.09529 h 0.73172 0.7317 l 0.0151,0.16522 c 0.0232,0.25341 0.0773,0.26402 0.29247,0.0574 0.23174,-0.22268 0.67669,-0.40335 0.99706,-0.40489 0.49844,-0.003 1.2049,0.34949 1.29486,0.64495 0.0174,0.0571 0.0597,0.13599 0.094,0.17526 0.12038,0.13774 0.17296,0.69638 0.19676,2.09031 0.0222,1.29978 0.0177,1.41339 -0.0597,1.49883 -0.0759,0.0838 -0.14855,0.0925 -0.77868,0.0925 -0.50675,0 -0.70858,-0.0163 -0.74512,-0.0604 -0.0317,-0.0383 -0.0554,-0.52678 -0.0647,-1.3336 l -0.0147,-1.27324 -0.13542,-0.17703 c -0.12346,-0.1614 -0.15552,-0.17703 -0.36322,-0.17703 -0.17269,0 -0.25985,0.0276 -0.36026,0.11387 l -0.13244,0.11386 -0.0127,1.31416 c -0.0122,1.2676 -0.0162,1.31708 -0.11144,1.39676 -0.0843,0.0705 -0.20103,0.0826 -0.79584,0.0826 -0.53144,0 -0.70982,-0.0153 -0.75059,-0.0645 z m -2.37167,-4.82862 c -0.0428,-0.0516 -0.0699,-0.23932 -0.0797,-0.55469 -0.0215,-0.68391 -0.0438,-0.66559 0.80847,-0.66559 0.88285,0 0.88239,0 0.88239,0.61464 0,0.36839 -0.0149,0.45378 -0.0978,0.55917 -0.0976,0.12402 -0.0998,0.12439 -0.77313,0.12439 -0.57002,0 -0.6854,-0.0122 -0.7401,-0.0779 z"
         id="path262826" /></g></g></svg>
